<svg width="753" height="504" viewBox="0 0 753 504" fill="none" xmlns="http://www.w3.org/2000/svg">
<path fill-rule="evenodd" clip-rule="evenodd" d="M26.8137 70.5164L183.192 243.362L376.117 30.121L569.042 243.362L726 69.8753L680.241 483.625H72.8853L26.8137 70.5164Z" fill="#F2AE00"/>
<path d="M183.192 243.362L168.361 256.78L183.192 273.173L198.023 256.78L183.192 243.362ZM26.8137 70.5164L41.6447 57.0984L0.0682399 11.1437L6.93695 72.7331L26.8137 70.5164ZM376.117 30.121L390.948 16.7031L376.117 0.310287L361.286 16.7031L376.117 30.121ZM569.042 243.362L554.211 256.78L569.042 273.173L583.873 256.78L569.042 243.362ZM726 69.8753L745.879 72.0738L752.68 10.5746L711.169 56.4573L726 69.8753ZM680.241 483.625V503.625H698.151L700.12 485.824L680.241 483.625ZM72.8853 483.625L53.0085 485.842L54.9918 503.625H72.8853V483.625ZM198.023 229.944L41.6447 57.0984L11.9827 83.9344L168.361 256.78L198.023 229.944ZM361.286 16.7031L168.361 229.944L198.023 256.78L390.948 43.539L361.286 16.7031ZM361.286 43.539L554.211 256.78L583.873 229.944L390.948 16.7031L361.286 43.539ZM583.873 256.78L740.831 83.2932L711.169 56.4573L554.211 229.944L583.873 256.78ZM706.121 67.6768L660.363 481.427L700.12 485.824L745.879 72.0738L706.121 67.6768ZM680.241 463.625H72.8853V503.625H680.241V463.625ZM92.7621 481.408L46.6905 68.2997L6.93695 72.7331L53.0085 485.842L92.7621 481.408Z" fill="black"/>
<path d="M375.978 256.978L452.818 337.021L375.978 417.5L299.137 337.021L375.978 256.978Z" fill="white" stroke="black" stroke-width="40"/>
</svg>
